<?xml version="1.0" encoding="utf-8"?>
<!-- Generator: Adobe Illustrator 19.1.0, SVG Export Plug-In . SVG Version: 6.00 Build 0)  -->
<svg version="1.1" id="Layer_1" xmlns="http://www.w3.org/2000/svg" xmlns:xlink="http://www.w3.org/1999/xlink" x="0px" y="0px"
	 viewBox="-279 402.9 36 36" style="enable-background:new -279 402.9 36 36;" xml:space="preserve">
<style type="text/css">
	.st0{fill:#FFFFFF;}
</style>
<path class="st0" d="M-260.6,420.9c0.1,0,0.2-0.1,0.3-0.1c-0.2-0.4-0.3-0.7-0.5-1.1c-3.3,1-6.5,0.9-6.7,0.9v0.2
	c0,1.7,0.6,3.2,1.7,4.4C-265.8,425-264,422-260.6,420.9L-260.6,420.9z"/>
<path class="st0" d="M-260,421.9c-3.7,1.3-5,3.9-5.1,4.1c1.1,0.9,2.5,1.4,4,1.4c0.9,0,1.8-0.2,2.6-0.5
	C-258.6,426.3-259,424.3-260,421.9C-260,421.9-260,421.9-260,421.9L-260,421.9z"/>
<path class="st0" d="M-261.5,418.7c-1.1-1.9-2.3-3.6-2.4-3.8c-1.8,0.9-3.2,2.6-3.6,4.6C-267.2,419.5-264.5,419.5-261.5,418.7z"/>
<path class="st0" d="M-256.7,415.9c-1.2-1-2.7-1.7-4.4-1.7c-0.5,0-1,0.1-1.5,0.2c0.2,0.2,1.4,1.9,2.5,3.8
	C-257.9,417.4-256.9,416.1-256.7,415.9z"/>
<path class="st0" d="M-261.1,404.6c-8.9,0-16.2,7.3-16.2,16.2c0,8.9,7.3,16.2,16.2,16.2c8.9,0,16.2-7.3,16.2-16.2
	S-252.1,404.6-261.1,404.6z M-261.1,428.5c-4.2,0-7.7-3.4-7.7-7.7c0-4.2,3.4-7.7,7.7-7.7c4.2,0,7.7,3.4,7.7,7.7
	C-253.4,425-256.9,428.5-261.1,428.5z"/>
<path class="st0" d="M-259.7,419.3c0.1,0.3,0.3,0.6,0.4,1c0,0.1,0.1,0.2,0.1,0.3c2.2-0.3,4.4,0.2,4.6,0.2c0-1.6-0.6-3-1.5-4.1
	C-256.2,416.9-257.3,418.3-259.7,419.3z"/>
<path class="st0" d="M-258.7,421.6c0.9,2.4,1.2,4.3,1.3,4.7c1.5-1,2.5-2.6,2.8-4.4C-254.8,421.8-256.7,421.3-258.7,421.6z"/>
</svg>
