<?xml version="1.0" encoding="utf-8"?>
<!-- Generator: Adobe Illustrator 19.1.0, SVG Export Plug-In . SVG Version: 6.00 Build 0)  -->
<svg version="1.1" id="Layer_1" xmlns="http://www.w3.org/2000/svg" xmlns:xlink="http://www.w3.org/1999/xlink" x="0px" y="0px"
	 viewBox="-279 402.9 36 36" style="enable-background:new -279 402.9 36 36;" xml:space="preserve">
<style type="text/css">
	.st0{fill:#FFFFFF;}
</style>
<path class="st0" d="M-261.1,404.6c-8.9,0-16.2,7.3-16.2,16.2s7.3,16.2,16.2,16.2c8.9,0,16.2-7.3,16.2-16.2
	S-252.1,404.6-261.1,404.6z M-258.9,423.8c0.3,0.3,0.6,0.9,0.6,1.7c0,1.3,0,2.3,0,2.6c0,0.3-4.7,0.2-4.7,0c0-0.2,0-0.8,0-1.6
	c-2.6,0.6-3.2-1.3-3.2-1.3c-0.4-1.1-1-1.4-1-1.4c-0.9-0.6,0.1-0.6,0.1-0.6c0.9,0.1,1.4,1,1.4,1c0.8,1.4,2.2,1,2.7,0.8
	c0.1-0.6,0.3-1,0.6-1.3c-2.1-0.2-4.3-1-4.3-4.7c0-1,0.4-1.9,1-2.5c-0.1-0.2-0.4-1.2,0.1-2.5c0,0,0.8-0.3,2.6,1
	c0.8-0.2,1.6-0.3,2.4-0.3c0.8,0,1.6,0.1,2.4,0.3c1.8-1.2,2.6-1,2.6-1c0.5,1.3,0.2,2.3,0.1,2.5c0.6,0.7,1,1.5,1,2.5
	C-254.6,422.8-256.8,423.6-258.9,423.8L-258.9,423.8z"/>
</svg>
